<svg width="400" height="198" viewBox="0 0 400 198" fill="none" xmlns="http://www.w3.org/2000/svg">
<style type="text/css">
  .large {
    display: block;
  }
  .medium {
    display: none;
  }
  .small {
    display: none;
  }
  @media (max-width: 400px) {
    .large {
      display: none;
    }
    .medium {
      display: block;
    }
  }
  @media (max-width: 200px) {
    .medium {
      display: none;
    }
    .small {
      display: block;
    }
  }
</style>
<g class="large">
  <path d="M40 130.988V40H51.1215V121.214H93.8135V130.988H40Z" fill="black"/>
<path d="M129.869 132.587C125.504 132.587 121.542 131.773 117.985 130.144C114.427 128.485 111.602 126.101 109.509 122.991C107.416 119.851 106.37 116.06 106.37 111.617C106.37 107.708 107.147 104.539 108.702 102.11C110.257 99.6516 112.334 97.7264 114.935 96.3343C117.536 94.9423 120.406 93.9056 123.546 93.2244C126.715 92.5136 129.899 91.9508 133.097 91.5361C137.283 91.003 140.676 90.6032 143.277 90.3366C145.908 90.0404 147.821 89.5517 149.017 88.8705C150.243 88.1893 150.856 87.0045 150.856 85.3163V84.9608C150.856 80.5773 149.645 77.1712 147.224 74.7425C144.832 72.3138 141.199 71.0994 136.326 71.0994C131.274 71.0994 127.312 72.1953 124.442 74.387C121.572 76.5788 119.554 78.9187 118.388 81.4066L108.343 77.8524C110.137 73.7058 112.529 70.4774 115.518 68.1672C118.538 65.8273 121.826 64.1983 125.384 63.2801C128.972 62.3323 132.5 61.8584 135.967 61.8584C138.18 61.8584 140.721 62.125 143.591 62.6581C146.491 63.1616 149.286 64.2131 151.977 65.8125C154.698 67.4119 156.955 69.8258 158.749 73.0542C160.542 76.2826 161.439 80.6069 161.439 86.0271V130.988H150.856V121.747H150.318C149.6 123.228 148.404 124.813 146.73 126.501C145.056 128.189 142.829 129.626 140.048 130.81C137.268 131.995 133.875 132.587 129.869 132.587ZM131.483 123.169C135.669 123.169 139.196 122.354 142.066 120.725C144.966 119.096 147.149 116.993 148.614 114.416C150.108 111.84 150.856 109.13 150.856 106.286V96.6898C150.407 97.2229 149.421 97.7116 147.896 98.1559C146.401 98.5705 144.667 98.9408 142.694 99.2666C140.751 99.5628 138.853 99.8293 136.999 100.066C135.175 100.274 133.695 100.451 132.559 100.599C129.809 100.955 127.238 101.532 124.846 102.332C122.484 103.102 120.571 104.272 119.106 105.842C117.671 107.382 116.953 109.485 116.953 112.151C116.953 115.794 118.314 118.548 121.034 120.414C123.785 122.251 127.268 123.169 131.483 123.169Z" fill="black"/>
<path d="M180.756 130.988V62.747H190.981V73.0542H191.698C192.954 69.6777 195.226 66.938 198.515 64.8351C201.803 62.7322 205.51 61.6807 209.636 61.6807C210.413 61.6807 211.385 61.6955 212.551 61.7251C213.717 61.7548 214.599 61.7992 215.197 61.8584V72.5211C214.838 72.4322 214.016 72.2989 212.73 72.1212C211.475 71.9139 210.144 71.8102 208.739 71.8102C205.391 71.8102 202.401 72.5063 199.77 73.8983C197.169 75.2608 195.106 77.1564 193.582 79.5851C192.087 81.9842 191.339 84.7239 191.339 87.8042V130.988H180.756Z" fill="black"/>
<path d="M253.449 158C248.337 158 243.942 157.348 240.265 156.045C236.588 154.772 233.523 153.083 231.072 150.98C228.65 148.907 226.722 146.686 225.287 144.316L233.718 138.452C234.674 139.696 235.885 141.117 237.35 142.717C238.815 144.346 240.818 145.753 243.359 146.937C245.93 148.152 249.294 148.759 253.449 148.759C259.01 148.759 263.599 147.426 267.216 144.761C270.834 142.095 272.643 137.919 272.643 132.232V118.37H271.746C270.968 119.614 269.862 121.155 268.427 122.991C267.022 124.798 264.989 126.412 262.328 127.834C259.698 129.226 256.14 129.922 251.655 129.922C246.095 129.922 241.102 128.618 236.677 126.012C232.283 123.406 228.8 119.614 226.229 114.639C223.687 109.663 222.417 103.62 222.417 96.512C222.417 89.5221 223.657 83.4355 226.139 78.2523C228.62 73.0394 232.073 69.0113 236.498 66.1679C240.923 63.2949 246.035 61.8584 251.835 61.8584C256.319 61.8584 259.877 62.5989 262.508 64.0798C265.169 65.5311 267.202 67.1898 268.607 69.0557C270.042 70.8921 271.148 72.4026 271.925 73.5874H273.001V62.747H283.226V132.943C283.226 138.807 281.881 143.576 279.19 147.248C276.529 150.951 272.942 153.661 268.427 155.379C263.943 157.126 258.95 158 253.449 158ZM253.09 120.503C257.336 120.503 260.923 119.54 263.853 117.615C266.783 115.69 269.01 112.921 270.535 109.307C272.06 105.694 272.822 101.369 272.822 96.3343C272.822 91.4177 272.075 87.0786 270.58 83.317C269.085 79.5555 266.873 76.6084 263.943 74.4759C261.013 72.3434 257.396 71.2771 253.09 71.2771C248.606 71.2771 244.869 72.4026 241.879 74.6536C238.92 76.9046 236.692 79.9257 235.197 83.7169C233.733 87.508 233 91.7139 233 96.3343C233 101.073 233.747 105.264 235.242 108.907C236.767 112.521 239.009 115.364 241.969 117.438C244.959 119.481 248.666 120.503 253.09 120.503Z" fill="black"/>
<path d="M331.479 132.41C324.842 132.41 319.117 130.958 314.303 128.056C309.52 125.124 305.828 121.036 303.227 115.794C300.656 110.522 299.37 104.391 299.37 97.4006C299.37 90.4106 300.656 84.25 303.227 78.9187C305.828 73.5577 309.445 69.3815 314.079 66.3901C318.743 63.369 324.184 61.8584 330.403 61.8584C333.99 61.8584 337.533 62.4508 341.031 63.6355C344.529 64.8203 347.713 66.7455 350.583 69.4111C353.453 72.0472 355.74 75.5422 357.444 79.8961C359.148 84.25 360 89.6109 360 95.9789V100.422H306.904V91.3584H349.237C349.237 87.508 348.46 84.0723 346.905 81.0512C345.381 78.0301 343.198 75.6458 340.358 73.8983C337.548 72.1509 334.229 71.2771 330.403 71.2771C326.187 71.2771 322.54 72.3138 319.46 74.387C316.411 76.4307 314.064 79.0964 312.42 82.384C310.776 85.6717 309.953 89.1963 309.953 92.9578V99C309.953 104.154 310.85 108.522 312.644 112.106C314.468 115.66 316.994 118.37 320.223 120.236C323.452 122.073 327.204 122.991 331.479 122.991C334.259 122.991 336.77 122.606 339.013 121.836C341.285 121.036 343.243 119.851 344.887 118.282C346.532 116.682 347.802 114.698 348.699 112.328L358.924 115.172C357.847 118.607 356.039 121.629 353.498 124.235C350.956 126.812 347.817 128.826 344.08 130.277C340.343 131.699 336.143 132.41 331.479 132.41Z" fill="black"/>
</g>
<g class="medium">
  <path d="M40 67.0298H49.3029L71.1774 120.948H71.9316L93.8061 67.0298H103.109V131.985H95.8175V82.6343H95.1889L75.0745 131.985H68.0345L47.9201 82.6343H47.2915V131.985H40V67.0298Z" fill="black"/>
<path d="M137.971 133C133.32 133 129.308 131.964 125.934 129.892C122.582 127.799 119.994 124.881 118.171 121.138C116.369 117.374 115.468 112.998 115.468 108.007C115.468 103.017 116.369 98.6194 118.171 94.8134C119.994 90.9863 122.529 88.005 125.777 85.8694C129.046 83.7127 132.859 82.6343 137.217 82.6343C139.731 82.6343 142.214 83.0572 144.666 83.903C147.117 84.7488 149.349 86.1231 151.36 88.0261C153.371 89.908 154.974 92.403 156.169 95.5112C157.363 98.6194 157.96 102.447 157.96 106.993V110.164H120.748V103.694H150.417C150.417 100.945 149.872 98.4925 148.783 96.3358C147.714 94.1791 146.185 92.477 144.194 91.2295C142.225 89.982 139.899 89.3582 137.217 89.3582C134.263 89.3582 131.707 90.0983 129.548 91.5784C127.411 93.0373 125.767 94.9403 124.614 97.2873C123.462 99.6343 122.886 102.15 122.886 104.836V109.149C122.886 112.828 123.514 115.947 124.771 118.506C126.049 121.043 127.82 122.978 130.083 124.31C132.346 125.621 134.975 126.276 137.971 126.276C139.92 126.276 141.68 126.001 143.251 125.451C144.844 124.881 146.216 124.035 147.369 122.914C148.521 121.772 149.411 120.356 150.04 118.664L157.206 120.694C156.451 123.147 155.184 125.303 153.403 127.164C151.622 129.004 149.422 130.442 146.803 131.478C144.184 132.493 141.24 133 137.971 133Z" fill="black"/>
<path d="M187.472 133C183.449 133 179.897 131.975 176.817 129.924C173.737 127.851 171.328 124.933 169.589 121.17C167.85 117.385 166.98 112.913 166.98 107.754C166.98 102.637 167.85 98.1965 169.589 94.4328C171.328 90.6692 173.748 87.7618 176.849 85.7108C179.95 83.6598 183.533 82.6343 187.597 82.6343C190.74 82.6343 193.223 83.1629 195.046 84.2202C196.89 85.2562 198.294 86.4403 199.257 87.7724C200.242 89.0833 201.007 90.1617 201.552 91.0075H202.18V67.0298H209.598V131.985H202.432V124.5H201.552C201.007 125.388 200.232 126.509 199.226 127.862C198.22 129.194 196.785 130.389 194.92 131.446C193.056 132.482 190.573 133 187.472 133ZM188.477 126.276C191.453 126.276 193.967 125.494 196.02 123.929C198.074 122.343 199.635 120.155 200.703 117.364C201.772 114.552 202.306 111.306 202.306 107.627C202.306 103.99 201.782 100.808 200.735 98.0802C199.687 95.3315 198.137 93.1959 196.083 91.6735C194.03 90.13 191.495 89.3582 188.477 89.3582C185.335 89.3582 182.715 90.1723 180.62 91.8004C178.546 93.4073 176.985 95.5958 175.937 98.3657C174.911 101.114 174.397 104.201 174.397 107.627C174.397 111.095 174.921 114.245 175.969 117.078C177.037 119.891 178.609 122.132 180.683 123.802C182.778 125.451 185.376 126.276 188.477 126.276Z" fill="black"/>
<path d="M224.212 131.985V83.2687H231.629V131.985H224.212ZM227.983 75.1493C226.538 75.1493 225.291 74.6524 224.243 73.6586C223.217 72.6648 222.703 71.4702 222.703 70.0746C222.703 68.6791 223.217 67.4845 224.243 66.4907C225.291 65.4969 226.538 65 227.983 65C229.429 65 230.665 65.4969 231.692 66.4907C232.74 67.4845 233.263 68.6791 233.263 70.0746C233.263 71.4702 232.74 72.6648 231.692 73.6586C230.665 74.6524 229.429 75.1493 227.983 75.1493Z" fill="black"/>
<path d="M275.637 112.067V83.2687H283.054V131.985H275.637V123.739H275.134C274.003 126.213 272.243 128.317 269.854 130.05C267.466 131.763 264.449 132.619 260.803 132.619C257.786 132.619 255.104 131.953 252.757 130.621C250.41 129.268 248.567 127.238 247.226 124.532C245.885 121.804 245.214 118.368 245.214 114.224V83.2687H252.631V113.716C252.631 117.269 253.616 120.102 255.586 122.216C257.576 124.331 260.111 125.388 263.191 125.388C265.035 125.388 266.911 124.912 268.817 123.961C270.745 123.009 272.358 121.55 273.657 119.584C274.977 117.618 275.637 115.112 275.637 112.067Z" fill="black"/>
<path d="M296.64 131.985V83.2687H303.805V90.8806H304.434C305.44 88.2799 307.063 86.2606 309.305 84.8228C311.547 83.3638 314.24 82.6343 317.383 82.6343C320.567 82.6343 323.218 83.3638 325.334 84.8228C327.471 86.2606 329.137 88.2799 330.331 90.8806H330.834C332.07 88.3644 333.925 86.3663 336.397 84.8862C338.869 83.385 341.834 82.6343 345.291 82.6343C349.608 82.6343 353.138 83.9981 355.883 86.7257C358.628 89.4322 360 93.6505 360 99.3806V131.985H352.583V99.3806C352.583 95.7861 351.609 93.217 349.66 91.6735C347.711 90.13 345.417 89.3582 342.777 89.3582C339.383 89.3582 336.753 90.3943 334.888 92.4664C333.024 94.5174 332.091 97.1182 332.091 100.269V131.985H324.548V98.6194C324.548 95.8495 323.658 93.6188 321.877 91.9272C320.096 90.2146 317.802 89.3582 314.994 89.3582C313.066 89.3582 311.264 89.8762 309.588 90.9123C307.933 91.9484 306.592 93.3862 305.565 95.2257C304.56 97.0442 304.057 99.148 304.057 101.537V131.985H296.64Z" fill="black"/>
</g>
<g class="small">
  <path d="M96.9287 73.8239C96.3632 68.9779 94.0697 65.2159 90.0482 62.5379C86.0268 59.8599 81.0942 58.5208 75.2505 58.5208C70.9778 58.5208 67.2391 59.2222 64.0345 60.625C60.8613 62.0278 58.3793 63.9566 56.5885 66.4115C54.8291 68.8663 53.9494 71.6559 53.9494 74.7803C53.9494 77.3946 54.5621 79.6422 55.7873 81.5232C57.044 83.3723 58.6463 84.9186 60.5942 86.1619C62.5421 87.3734 64.5843 88.3777 66.7207 89.1747C68.8571 89.9399 70.8207 90.5616 72.6115 91.0398L82.4138 93.7178C84.9272 94.3873 87.7233 95.3119 90.8023 96.4915C93.9126 97.6711 96.8816 99.2811 99.7091 101.322C102.568 103.33 104.924 105.912 106.778 109.069C108.632 112.225 109.559 116.098 109.559 120.689C109.559 125.982 108.192 130.764 105.459 135.036C102.757 139.308 98.798 142.703 93.5827 145.222C88.3988 147.741 82.0996 149 74.685 149C67.7732 149 61.7881 147.868 56.7299 145.605C51.7031 143.341 47.7444 140.185 44.854 136.136C41.995 132.087 40.377 127.384 40 122.028H52.0644C52.3785 125.727 53.6038 128.787 55.7402 131.21C57.908 133.601 60.6414 135.387 63.9402 136.566C67.2705 137.714 70.8521 138.288 74.685 138.288C79.1463 138.288 83.1521 137.555 86.7023 136.088C90.2524 134.59 93.0643 132.517 95.1379 129.871C97.2114 127.193 98.2482 124.069 98.2482 120.498C98.2482 117.246 97.3528 114.6 95.562 112.56C93.7712 110.519 91.4149 108.861 88.4931 107.586C85.5712 106.311 82.4138 105.195 79.0207 104.239L67.1448 100.795C59.6046 98.5956 53.6352 95.4553 49.2368 91.3745C44.8383 87.2937 42.6391 81.9536 42.6391 75.3542C42.6391 69.8706 44.1 65.0884 47.0218 61.0076C49.9751 56.8949 53.9337 53.7068 58.8977 51.4432C63.8931 49.1477 69.4697 48 75.6276 48C81.8482 48 87.3777 49.1318 92.216 51.3954C97.0544 53.6271 100.887 56.6877 103.715 60.5772C106.574 64.4667 108.082 68.8823 108.239 73.8239H96.9287Z" fill="black"/>
  <path d="M127.266 147.278V73.8239H138.011V85.3011H138.954C140.462 81.3797 142.897 78.3351 146.258 76.1671C149.62 73.9673 153.657 72.8674 158.37 72.8674C163.145 72.8674 167.12 73.9673 170.293 76.1671C173.497 78.3351 175.995 81.3797 177.786 85.3011H178.54C180.393 81.5073 183.174 78.4945 186.881 76.2628C190.588 73.9992 195.034 72.8674 200.218 72.8674C206.69 72.8674 211.984 74.9238 216.1 79.0365C220.215 83.1173 222.273 89.4776 222.273 98.1174V147.278H211.151V98.1174C211.151 92.6976 209.69 88.824 206.769 86.4967C203.847 84.1694 200.406 83.0057 196.448 83.0057C191.358 83.0057 187.415 84.5679 184.619 87.6922C181.823 90.7847 180.425 94.7061 180.425 99.4564V147.278H169.115V96.9697C169.115 92.7932 167.779 89.4298 165.109 86.8793C162.438 84.2969 158.998 83.0057 154.788 83.0057C151.898 83.0057 149.196 83.7868 146.682 85.349C144.2 86.9111 142.19 89.0791 140.65 91.8528C139.142 94.5945 138.388 97.7667 138.388 101.369V147.278H127.266Z" fill="black"/>
  <path d="M263.909 149C259.322 149 255.159 148.123 251.421 146.37C247.682 144.584 244.713 142.018 242.514 138.67C240.315 135.291 239.215 131.21 239.215 126.428C239.215 122.22 240.032 118.808 241.666 116.194C243.299 113.548 245.483 111.476 248.216 109.977C250.95 108.479 253.966 107.363 257.264 106.63C260.595 105.865 263.941 105.259 267.302 104.813C271.701 104.239 275.267 103.808 278 103.521C280.765 103.202 282.776 102.676 284.032 101.943C285.32 101.21 285.964 99.9347 285.964 98.1174V97.7348C285.964 93.0164 284.692 89.3501 282.147 86.7358C279.634 84.1215 275.817 82.8144 270.695 82.8144C265.386 82.8144 261.223 83.994 258.207 86.3532C255.191 88.7124 253.07 91.2311 251.845 93.9091L241.289 90.0833C243.174 85.6199 245.687 82.1449 248.829 79.6581C252.002 77.1395 255.458 75.386 259.197 74.3977C262.967 73.3775 266.674 72.8674 270.318 72.8674C272.643 72.8674 275.314 73.1544 278.33 73.7282C281.377 74.2702 284.315 75.402 287.143 77.1236C290.002 78.8452 292.374 81.4435 294.259 84.9186C296.144 88.3936 297.086 93.0483 297.086 98.8826V147.278H285.964V137.331H285.399C284.645 138.926 283.388 140.631 281.629 142.448C279.869 144.266 277.529 145.812 274.607 147.087C271.685 148.362 268.119 149 263.909 149ZM265.606 138.862C270.004 138.862 273.712 137.985 276.728 136.232C279.775 134.478 282.069 132.214 283.608 129.441C285.179 126.667 285.964 123.75 285.964 120.689V110.36C285.493 110.934 284.456 111.46 282.854 111.938C281.283 112.384 279.461 112.783 277.387 113.134C275.345 113.452 273.35 113.739 271.402 113.994C269.486 114.217 267.931 114.409 266.737 114.568C263.846 114.951 261.145 115.572 258.631 116.433C256.149 117.262 254.138 118.521 252.599 120.211C251.091 121.869 250.337 124.133 250.337 127.002C250.337 130.923 251.766 133.888 254.625 135.897C257.516 137.873 261.176 138.862 265.606 138.862Z" fill="black"/>
  <path d="M328.508 49.339V147.278H317.386V49.339H328.508Z" fill="black"/>
  <path d="M360 49.339V147.278H348.878V49.339H360Z" fill="black"/>
</g>
</svg>
