<svg width="203" height="77" viewBox="0 0 203 77" fill="none" xmlns="http://www.w3.org/2000/svg">
<path d="M0.0454407 59V0.81818H7.0909V52.75H34.1363V59H0.0454407Z" fill="black"/>
<path d="M56.9773 60.0227C54.2121 60.0227 51.7026 59.5019 49.4488 58.4602C47.1951 57.3996 45.4053 55.875 44.0795 53.8864C42.7538 51.8788 42.0909 49.4545 42.0909 46.6136C42.0909 44.1136 42.5833 42.0871 43.5682 40.5341C44.553 38.9621 45.8693 37.7311 47.517 36.8409C49.1648 35.9508 50.9829 35.2879 52.9716 34.8523C54.9792 34.3977 56.9962 34.0379 59.0227 33.7727C61.6742 33.4318 63.8239 33.1761 65.4716 33.0057C67.1382 32.8163 68.3504 32.5038 69.1079 32.0682C69.8845 31.6326 70.2727 30.875 70.2727 29.7955V29.5682C70.2727 26.7652 69.5057 24.5871 67.9716 23.0341C66.4564 21.4811 64.1553 20.7045 61.0682 20.7045C57.8674 20.7045 55.3579 21.4053 53.5398 22.8068C51.7216 24.2083 50.4432 25.7045 49.7045 27.2955L43.3409 25.0227C44.4773 22.3712 45.9924 20.3068 47.8863 18.8295C49.7992 17.3333 51.8826 16.2917 54.1363 15.7045C56.4091 15.0985 58.6439 14.7955 60.8409 14.7955C62.2424 14.7955 63.8523 14.9659 65.6704 15.3068C67.5076 15.6288 69.2784 16.3011 70.9829 17.3239C72.7064 18.3466 74.1363 19.8902 75.2727 21.9545C76.4091 24.0189 76.9773 26.7841 76.9773 30.25V59H70.2727V53.0909H69.9318C69.4773 54.0379 68.7197 55.0511 67.6591 56.1307C66.5985 57.2102 65.1875 58.1288 63.4261 58.8864C61.6648 59.6439 59.5151 60.0227 56.9773 60.0227ZM58 54C60.6515 54 62.8863 53.4792 64.7045 52.4375C66.5416 51.3958 67.9242 50.0511 68.8523 48.4034C69.7992 46.7557 70.2727 45.0227 70.2727 43.2045V37.0682C69.9886 37.4091 69.3636 37.7216 68.3977 38.0057C67.4507 38.2708 66.3523 38.5076 65.1023 38.7159C63.8712 38.9053 62.6686 39.0758 61.4943 39.2273C60.339 39.3598 59.4015 39.4735 58.6818 39.5682C56.9394 39.7955 55.3106 40.1648 53.7954 40.6761C52.2992 41.1686 51.0871 41.9167 50.1591 42.9205C49.25 43.9053 48.7954 45.25 48.7954 46.9545C48.7954 49.2841 49.6572 51.0455 51.3807 52.2386C53.1231 53.4129 55.3295 54 58 54Z" fill="black"/>
<path d="M89.2145 59V15.3636H95.6917V21.9545H96.1463C96.9417 19.7955 98.3811 18.0436 100.464 16.6989C102.548 15.3542 104.896 14.6818 107.51 14.6818C108.002 14.6818 108.618 14.6913 109.357 14.7102C110.095 14.7292 110.654 14.7576 111.033 14.7955V21.6136C110.805 21.5568 110.285 21.4716 109.47 21.358C108.675 21.2254 107.832 21.1591 106.942 21.1591C104.821 21.1591 102.927 21.6042 101.26 22.4943C99.6122 23.3655 98.3054 24.5777 97.3395 26.1307C96.3925 27.6648 95.919 29.4167 95.919 31.3864V59H89.2145Z" fill="black"/>
<path d="M135.266 76.2727C132.027 76.2727 129.243 75.8561 126.913 75.0227C124.584 74.2083 122.643 73.1288 121.089 71.7841C119.555 70.4583 118.334 69.0379 117.425 67.5227L122.766 63.7727C123.372 64.5682 124.139 65.4773 125.067 66.5C125.995 67.5417 127.264 68.4413 128.874 69.1989C130.502 69.9754 132.633 70.3636 135.266 70.3636C138.788 70.3636 141.696 69.5114 143.987 67.8068C146.279 66.1023 147.425 63.4318 147.425 59.7955V50.9318H146.857C146.364 51.7273 145.663 52.7121 144.754 53.8864C143.864 55.0417 142.576 56.0739 140.891 56.983C139.224 57.8731 136.97 58.3182 134.129 58.3182C130.607 58.3182 127.444 57.4849 124.641 55.8182C121.857 54.1515 119.65 51.7273 118.021 48.5455C116.411 45.3636 115.607 41.5 115.607 36.9545C115.607 32.4848 116.393 28.5928 117.964 25.2784C119.536 21.9451 121.724 19.3693 124.527 17.5511C127.33 15.714 130.569 14.7955 134.243 14.7955C137.084 14.7955 139.338 15.2689 141.004 16.2159C142.69 17.1439 143.978 18.2045 144.868 19.3977C145.777 20.572 146.478 21.5379 146.97 22.2955H147.652V15.3636H154.129V60.25C154.129 64 153.277 67.0492 151.572 69.3977C149.887 71.7651 147.614 73.4981 144.754 74.5966C141.913 75.714 138.75 76.2727 135.266 76.2727ZM135.038 52.2955C137.728 52.2955 140 51.6799 141.857 50.4489C143.713 49.2178 145.124 47.447 146.089 45.1364C147.055 42.8258 147.538 40.0606 147.538 36.8409C147.538 33.697 147.065 30.9223 146.118 28.517C145.171 26.1117 143.769 24.2273 141.913 22.8636C140.057 21.5 137.766 20.8182 135.038 20.8182C132.197 20.8182 129.83 21.5379 127.936 22.9773C126.061 24.4167 124.65 26.3485 123.703 28.7727C122.775 31.197 122.311 33.8864 122.311 36.8409C122.311 39.8712 122.785 42.5511 123.732 44.8807C124.697 47.1913 126.118 49.0095 127.993 50.3352C129.887 51.642 132.235 52.2955 135.038 52.2955Z" fill="black"/>
<path d="M184.697 59.9091C180.493 59.9091 176.866 58.9811 173.817 57.125C170.786 55.25 168.447 52.6364 166.8 49.2841C165.171 45.9129 164.357 41.9924 164.357 37.5227C164.357 33.053 165.171 29.1136 166.8 25.7045C168.447 22.2765 170.739 19.6061 173.675 17.6932C176.629 15.7614 180.076 14.7955 184.016 14.7955C186.288 14.7955 188.533 15.1742 190.749 15.9318C192.964 16.6894 194.982 17.9205 196.8 19.625C198.618 21.3106 200.067 23.5455 201.146 26.3295C202.226 29.1136 202.766 32.5417 202.766 36.6136V39.4545H169.129V33.6591H195.947C195.947 31.197 195.455 29 194.47 27.0682C193.504 25.1364 192.122 23.6117 190.322 22.4943C188.542 21.3769 186.44 20.8182 184.016 20.8182C181.345 20.8182 179.035 21.4811 177.084 22.8068C175.152 24.1136 173.665 25.8182 172.624 27.9205C171.582 30.0227 171.061 32.2765 171.061 34.6818V38.5455C171.061 41.8409 171.629 44.6345 172.766 46.9261C173.921 49.1989 175.521 50.9318 177.567 52.125C179.612 53.2992 181.989 53.8864 184.697 53.8864C186.459 53.8864 188.05 53.6402 189.47 53.1477C190.91 52.6364 192.15 51.8788 193.192 50.875C194.233 49.8523 195.038 48.5833 195.607 47.0682L202.084 48.8864C201.402 51.0833 200.256 53.0151 198.646 54.6818C197.036 56.3295 195.048 57.6174 192.68 58.5455C190.313 59.4545 187.652 59.9091 184.697 59.9091Z" fill="black"/>
</svg>
